{"title":"Jumper.2008.BRRip.x264.AAC.MS","uid":5589407,"size":1621151622,"categoryP":"video","categoryS":"hd___movies","magnet":"?xt=urn:btih:37d5495d046d4bffb7d9ff2b5b30c16b3071c287&amp;dn=Jumper.2008.BRRip.x264.AAC.MS&amp;tr=udp%3A%2F%2Ftracker.openbittorrent.com%3A80&amp;tr=udp%3A%2F%2Fopen.demonii.com%3A1337&amp;tr=udp%3A%2F%2Ftracker.coppersurfer.tk%3A6969&amp;tr=udp%3A%2F%2Fexodus.desync.com%3A6969","seeders":0,"leechers":1,"uploader":"rev-x","files":1,"time":1274809399,"description":"====== Jumper.2008.BRRip.H264.AAC-MS ==========\n\n      Format : MPEG-4\n      Format profile : Base Media / Version 2\n      Codec ID : mp42\n      File size : 1.51 GiB\n      Duration : 1h 28mn\n      Overall bit rate : 2 443 Kbps\n\nVideo #1\n      Format : AVC\n      Format/Info : Advanced Video Codec\n      Format profile : &lt;a class=&quot;__cf_email__&quot; href=&quot;/cdn-cgi/l/email-protection&quot; data-cfemail=&quot;1d55747a755d512e332c&quot;&gt;[email&amp;#160;protected]&lt;/a&gt;&lt;script cf-hash='f9e31' type=&quot;text/javascript&quot;&gt;\n/* &lt;![CDATA[ */!function(){try{var t=&quot;currentScript&quot;in document?document.currentScript:function(){for(var t=document.getElementsByTagName(&quot;script&quot;),e=t.length;e--;)if(t[e].getAttribute(&quot;cf-hash&quot;))return t[e]}();if(t&amp;&amp;t.previousSibling){var e,r,n,i,c=t.previousSibling,a=c.getAttribute(&quot;data-cfemail&quot;);if(a){for(e=&quot;&quot;,r=parseInt(a.substr(0,2),16),n=2;a.length-n;n+=2)i=parseInt(a.substr(n,2),16)^r,e+=String.fromCharCode(i);e=document.createTextNode(e),c.parentNode.replaceChild(e,c)}}}catch(u){}}();/* ]]&gt; */&lt;/script&gt;\n      Format settings, CABAC : Yes\n      Format settings, ReFrames : 3 frames\n      Codec ID : avc1\n      Codec ID/Info : Advanced Video Coding\n      Duration : 1h 28mn\n      Bit rate mode : Variable\n      Bit rate : 1 800 Kbps\n      Width : 1 280 pixels\n      Height : 544 pixels\n      Display aspect ratio : 2.35\n      Frame rate mode : Variable\n      Frame rate : 23.976 fps\n      Minimum frame rate : 12.276 fps\n      Maximum frame rate : 25.144 fps\n      Resolution : 24 bits\n      Colorimetry : 4:2:0\n      Scan type : Progressive\n      Bits/(Pixel*Frame) : 0.108\n      Stream size : 1.11 GiB (74%)\n      Writing library : x264 core 65\n\nAudio #2\n      Format : AC-3\n      Format/Info : Audio Coding 3\n      Codec ID : ac-3\n      Duration : 1h 28mn\n      Bit rate mode : Constant\n      Bit rate : 640 Kbps\n      Channel(s) : 6 channels\n      Channel positions : Front: L C R, Surround: L R, LFE\n      Sampling rate : 48.0 KHz\n      Resolution : 16 bits\n      Stream size : 405 MiB (26%)\n      Language : English\n\nUse KM player or Windows media Classic\n\nPls be patience I only Upload from 8pm to 5am full speed up to 300kbps... This is my first Upload so i need some comments...Thanx and Enjoy!!!","torrent":{"xt":"urn:btih:37d5495d046d4bffb7d9ff2b5b30c16b3071c287","amp;dn":"Jumper.2008.BRRip.x264.AAC.MS","amp;tr":["udp%3A%2F%2Ftracker.openbittorrent.com%3A80","udp%3A%2F%2Fopen.demonii.com%3A1337","udp%3A%2F%2Ftracker.coppersurfer.tk%3A6969","udp%3A%2F%2Fexodus.desync.com%3A6969"],"infoHash":"37d5495d046d4bffb7d9ff2b5b30c16b3071c287","infoHashBuffer":{"type":"Buffer","data":[55,213,73,93,4,109,75,255,183,217,255,43,91,48,193,107,48,113,194,135]},"announce":[],"urlList":[]}}